<?xml version="1.0" encoding="utf-8"?>
<!-- Generator: Adobe Illustrator 25.0.1, SVG Export Plug-In . SVG Version: 6.00 Build 0)  -->
<svg version="1.1" id="Layer_1" xmlns="http://www.w3.org/2000/svg" xmlns:xlink="http://www.w3.org/1999/xlink" x="0px" y="0px"
	 viewBox="0 0 210.6 83.1" style="enable-background:new 0 0 210.6 83.1;" xml:space="preserve">
<style type="text/css">
	.st0{fill:#ED1F23;}
	.st1{fill:#5A5A5A;}
</style>
<path d="M119.5,25h-5.6v7.5h-9.1V25h-5.5v23.1h20.2V25z M113.9,42.5h-9.1v-4.4h9.1V42.5z M97,58.4h24.8v-5.6H97V58.4z"/>
<path d="M129.2,40.9h12.4v3.2h-12.4v14.4h18v-5.6h-12.4v-3.2h12.4V35.3h-18V40.9z M153.2,58.4h5.6V35.3h-5.6V58.4z"/>
<path d="M69.4,68.7H84v13.4h5.6v-19H69.4V68.7z M60.8,45.3v-4.4h7.9v-5.6h-7.9v-4.9h-5.6v4.9h-7.9v5.6h7.9v4.4l-9.5,9.5l4,3.9
	l8.4-8.4l8.4,8.4l3.9-3.9L60.8,45.3z M74,35.3v23.1h5.6V40.9h4.5v17.5h5.6V35.3H74z"/>
<polygon points="24.6,54.8 15.1,45.3 15.1,40.9 23,40.9 23,35.3 1.7,35.3 1.7,40.9 9.5,40.9 9.5,45.3 0,54.8 4,58.8 12.3,50.4 
	20.7,58.8 "/>
<path d="M191.8,52.8h-4.5v-12h4.4v-5.6H166v5.6h4.5v12H166v5.6h25.7v-5.6H191.8z M181.7,52.8h-5.6v-12h5.6V52.8z M203.4,63.5V35.2
	h-5.6v28.3c-4.2,1.2-7.2,5-7.2,9.6c0,5.5,4.5,10,10,10s10-4.5,10-10C210.6,68.6,207.5,64.8,203.4,63.5 M200.6,77.6
	c-2.4,0-4.4-2-4.4-4.4s2-4.4,4.4-4.4s4.4,2,4.4,4.4C205,75.6,203,77.6,200.6,77.6"/>
<path class="st0" d="M40,63.5V24.9h-5.6v10.3h-7.2v5.6h7.2v22.7c-4.2,1.2-7.2,5-7.2,9.6c0,5.5,4.5,10,10,10s10-4.5,10-10
	C47.2,68.6,44.1,64.8,40,63.5 M37.2,77.6c-2.4,0-4.4-2-4.4-4.4s2-4.4,4.4-4.4s4.4,2,4.4,4.4C41.6,75.6,39.6,77.6,37.2,77.6"/>
<path class="st1" d="M2.3,1.8h9.1v2.4H5v12.5h6.6V19H2.3V1.8z M18.6,0.5h2.6v21.6h-2.6V11.7h-2.9V22h-2.5V0.6h2.5v8.8h2.9V0.5z"/>
<path class="st1" d="M24.6,4.4V2.1h5.1V0h2.9v2.1h5.1v2.3H24.6z M25.5,21.6V15h2.7v4.2h14.7v2.3H25.5V21.6z M36.1,9.6
	c0,0.6-0.1,1.2-0.4,1.8c-0.3,0.5-0.6,1-1.1,1.5c-0.5,0.4-1,0.8-1.6,1s-1.3,0.4-1.9,0.4c-0.7,0-1.3-0.1-1.9-0.4
	c-0.6-0.2-1.1-0.6-1.6-1s-0.8-0.9-1.1-1.5c-0.3-0.5-0.4-1.1-0.4-1.8c0-0.6,0.1-1.2,0.4-1.8c0.3-0.6,0.6-1.1,1.1-1.5s1-0.8,1.6-1
	s1.3-0.4,1.9-0.4c0.7,0,1.3,0.1,1.9,0.4c0.6,0.2,1.1,0.6,1.6,1c0.4,0.4,0.8,0.9,1.1,1.5C35.9,8.3,36.1,9,36.1,9.6 M33.5,9.6
	c0-0.7-0.2-1.2-0.7-1.7s-1-0.7-1.7-0.7s-1.2,0.2-1.7,0.7s-0.7,1-0.7,1.7s0.2,1.2,0.7,1.7s1,0.7,1.7,0.7s1.2-0.2,1.7-0.7
	S33.5,10.2,33.5,9.6 M42.5,6.4h3.1v2.3h-3.1v5.6h-2.7V0.5h2.7V6.4z"/>
<path class="st1" d="M48.4,1.1h11.1v11.1H48.4V1.1z M49,21.6v-7.2h2.7v4.8h15v2.4L49,21.6L49,21.6z M56.8,3.4H51v6.5h5.8V3.4z
	 M63.8,0.5h2.7v13.8h-2.7V0.5z"/>
<path class="st1" d="M88.1,14.6v7.5h-2.7v-5.2H71.2v-2.3h7.2v-3.2h-8.6V9.1h19.8v2.3H81v3.2H88.1z M88.1,0.9v6.4h-2.7V3.2H71.5V0.8
	h16.6V0.9z"/>
</svg>
